<svg width="48" height="47" viewBox="0 0 48 47" fill="none" xmlns="http://www.w3.org/2000/svg">
<g clip-path="url(#clip0_26_52)">
<path d="M47.5432 0H0.543213V47H47.5432V0Z" fill="#D71A22"/>
<path d="M12.0425 26.2574L11.7291 26.3514L11.4471 25.9754C11.2905 26.1007 11.1025 26.1947 10.9145 26.2574C10.7265 26.32 10.5071 26.3514 10.2878 26.3514C9.6298 26.3514 9.12847 26.0694 8.7838 25.474C8.43914 24.8787 8.28247 24.0327 8.28247 22.8734C8.28247 22.1527 8.37647 21.526 8.56447 20.9934C8.75247 20.4607 9.00314 20.022 9.3478 19.74C9.69247 19.458 10.0998 19.3014 10.5698 19.3014C10.8205 19.3014 11.0398 19.3327 11.2591 19.364C11.4785 19.3954 11.7291 19.458 12.0111 19.552V20.9307H11.6351C11.5725 20.6174 11.4785 20.398 11.3845 20.21C11.2905 20.0534 11.1651 19.928 11.0398 19.834C10.9145 19.7714 10.7265 19.74 10.5385 19.74C10.2565 19.74 10.0058 19.8654 9.78647 20.0847C9.56714 20.3354 9.41047 20.68 9.28514 21.1187C9.1598 21.5887 9.09714 22.1214 9.09714 22.7794C9.09714 23.4374 9.1598 24.0014 9.2538 24.4714C9.3478 24.9414 9.50447 25.286 9.69247 25.5367C9.88047 25.7874 10.1311 25.8814 10.4131 25.8814C10.7265 25.8814 10.9458 25.7874 11.1025 25.6307C11.2591 25.474 11.3218 25.192 11.3218 24.816V24.5027C11.3218 24.1894 11.3218 23.97 11.2905 23.8447C11.2591 23.7194 11.2278 23.594 11.1651 23.5314C11.1025 23.4687 11.0085 23.406 10.8518 23.3434V23.0927H12.4185V23.3434C12.3245 23.3747 12.2618 23.4374 12.1991 23.4687C12.1365 23.5314 12.1051 23.594 12.1051 23.6567C12.0738 23.7194 12.0738 23.8447 12.0425 23.9387C12.0111 24.0327 12.0425 24.2207 12.0425 24.4087V26.2574Z" fill="white"/>
<path d="M16.2097 25.4427C16.0531 25.662 15.8964 25.85 15.7397 25.9754C15.5831 26.1007 15.4577 26.1947 15.2697 26.2887C15.1131 26.3514 14.9251 26.3827 14.7057 26.3827C14.1731 26.3827 13.7657 26.1634 13.4837 25.756C13.2017 25.3487 13.0764 24.722 13.0764 23.9074C13.0764 23.406 13.1391 22.9674 13.2957 22.5914C13.4524 22.2154 13.6404 21.902 13.8911 21.714C14.1417 21.4947 14.4551 21.4007 14.7684 21.4007C15.0191 21.4007 15.2697 21.4634 15.4577 21.5574C15.6457 21.6514 15.8024 21.808 15.8964 21.996C15.9904 22.184 16.0844 22.4034 16.1471 22.6854C16.2097 22.9674 16.2411 23.3434 16.2411 23.8134H13.7657V23.9074C13.7657 24.3147 13.7971 24.628 13.8597 24.91C13.9224 25.192 14.0477 25.38 14.2044 25.5367C14.3611 25.6934 14.5804 25.756 14.8311 25.756C15.0504 25.756 15.2384 25.6934 15.3951 25.5994C15.5517 25.5054 15.7397 25.3174 15.8964 25.098L16.2097 25.4427ZM15.5831 23.3747C15.5831 22.9987 15.5204 22.7167 15.4891 22.4974C15.4264 22.278 15.3637 22.09 15.2384 21.9647C15.1444 21.8394 14.9877 21.7767 14.7997 21.7767C14.5177 21.7767 14.3297 21.902 14.1731 22.184C14.0164 22.466 13.9224 22.8734 13.8911 23.3747H15.5831Z" fill="white"/>
<path d="M16.7739 21.714C16.8993 21.6827 17.0246 21.6514 17.0873 21.5887C17.1813 21.526 17.2439 21.432 17.2753 21.338C17.3379 21.244 17.3693 21.0874 17.3693 20.9307C17.4006 20.774 17.4319 20.5547 17.4633 20.2414H18.0273V21.4947H19.2806V21.996H18.0273V24.252C18.0273 24.5654 18.0273 24.8474 18.0586 25.0354C18.0899 25.2234 18.1213 25.38 18.1839 25.474C18.2466 25.568 18.3093 25.662 18.3719 25.7247C18.4346 25.7874 18.5286 25.7874 18.6539 25.7874C18.7479 25.7874 18.8733 25.756 18.9359 25.6934C19.0299 25.6307 19.1239 25.568 19.2179 25.4427L19.4059 25.7247C19.2179 25.944 19.0299 26.132 18.8733 26.226C18.7166 26.32 18.5286 26.3827 18.3719 26.3827C18.0273 26.3827 17.7766 26.2574 17.6199 26.0067C17.4633 25.756 17.3693 25.3487 17.3693 24.7847V21.996H16.8053L16.7739 21.714Z" fill="white"/>
<path d="M20.6592 22.2467C20.8472 21.996 21.0038 21.8394 21.1292 21.714C21.2545 21.5887 21.3798 21.526 21.5052 21.4634C21.6305 21.4007 21.7872 21.3694 21.9125 21.3694C22.1945 21.3694 22.4452 21.4634 22.6332 21.6514C22.8212 21.8394 22.9778 22.1214 23.1032 22.466C23.1972 22.842 23.2598 23.2807 23.2598 23.8134C23.2598 24.3774 23.1972 24.816 23.0718 25.192C22.9465 25.568 22.7585 25.85 22.5078 26.038C22.2572 26.226 21.9438 26.32 21.6305 26.32C21.4425 26.32 21.2545 26.2887 21.0978 26.2574C20.9098 26.1947 20.7532 26.132 20.5652 26.0067L20.2832 26.32L19.9698 26.2887V20.8054C19.9698 20.492 19.9698 20.2414 19.9698 20.116C19.9698 19.9907 19.9698 19.8654 19.9385 19.8027C19.9072 19.7087 19.9072 19.646 19.8758 19.5834C19.8445 19.5207 19.8132 19.4894 19.7505 19.458C19.6878 19.4267 19.5938 19.3954 19.4685 19.364V19.1134L20.4085 19.0507H20.6278L20.6592 22.2467ZM20.6592 24.4714C20.6592 24.722 20.6592 24.9414 20.6905 25.098C20.7218 25.2547 20.7532 25.38 20.7845 25.474C20.8158 25.568 20.8785 25.662 20.9725 25.756C21.0665 25.85 21.1605 25.8814 21.2545 25.944C21.3485 25.9754 21.4738 26.0067 21.5992 26.0067C21.9125 26.0067 22.1632 25.85 22.3198 25.5054C22.4765 25.1607 22.5705 24.6907 22.5705 24.0327C22.5705 23.3747 22.5078 22.8734 22.3512 22.5287C22.1945 22.184 21.9752 22.0274 21.6932 22.0274C21.5365 22.0274 21.4112 22.0587 21.3172 22.1214C21.2232 22.184 21.0978 22.278 21.0038 22.4034C20.9098 22.5287 20.8158 22.654 20.7845 22.7794C20.7218 22.9047 20.7218 23.03 20.7218 23.1867L20.6592 24.4714Z" fill="white"/>
<path d="M25.1085 22.3093H25.1711C25.3278 22.09 25.4531 21.902 25.5785 21.7767C25.7038 21.6513 25.8291 21.5573 25.9858 21.4633C26.1425 21.4007 26.2991 21.3693 26.4558 21.3693C26.6125 21.3693 26.7378 21.3693 26.8631 21.4007V22.56H26.4245C26.3618 22.372 26.2991 22.2467 26.2365 22.1527C26.1738 22.0587 26.0798 22.0273 25.9545 22.0273C25.8605 22.0273 25.7665 22.0587 25.6725 22.1213C25.5785 22.184 25.4845 22.3093 25.4218 22.4347C25.3278 22.56 25.2651 22.6853 25.2338 22.8107C25.2025 22.936 25.1711 23.0613 25.1711 23.218V24.9727C25.1711 25.286 25.2025 25.5053 25.2025 25.5993C25.2338 25.7247 25.2651 25.7873 25.3591 25.85C25.4218 25.9127 25.5158 25.944 25.6411 25.9753V26.226H24.0745V25.9753C24.1685 25.944 24.2311 25.9127 24.2938 25.8813C24.3565 25.85 24.3878 25.8187 24.3878 25.756C24.4191 25.6933 24.4505 25.6307 24.4505 25.5053C24.4818 25.4113 24.4818 25.2233 24.4818 24.9727V22.7793C24.4818 22.56 24.4818 22.4033 24.4818 22.2467C24.4818 22.1213 24.4505 21.996 24.4191 21.9333C24.3878 21.8393 24.3565 21.808 24.2625 21.7453C24.1998 21.714 24.1058 21.6827 23.9805 21.6513V21.4007L24.8891 21.338H25.1398L25.1085 22.3093Z" fill="white"/>
<path d="M29.4952 25.568L29.4325 25.5367C29.2132 25.8187 28.9938 26.038 28.8058 26.1634C28.6178 26.2887 28.3985 26.3514 28.1792 26.3514C27.9912 26.3514 27.8032 26.2887 27.6465 26.1947C27.4898 26.1007 27.3958 25.944 27.3018 25.7874C27.2078 25.6307 27.1765 25.4114 27.1765 25.1607C27.1765 24.6594 27.3645 24.2834 27.7405 24.0327C28.1165 23.782 28.6805 23.6254 29.4325 23.5627V23.218C29.4325 22.8734 29.4012 22.5914 29.3698 22.4034C29.3072 22.184 29.2445 22.0587 29.1192 21.9647C29.0252 21.8707 28.8685 21.8394 28.6805 21.8394C28.4612 21.8394 28.3045 21.902 28.1792 22.0587C28.0538 22.184 27.9598 22.4034 27.8972 22.6854H27.3958V22.0274C27.6465 21.8707 27.8658 21.7454 28.0225 21.6514C28.1792 21.5574 28.3672 21.526 28.5238 21.4634C28.6805 21.4007 28.8685 21.4007 29.0252 21.4007C29.2758 21.4007 29.4952 21.4634 29.6518 21.5574C29.8085 21.6514 29.9338 21.808 29.9965 22.0274C30.0592 22.2467 30.1218 22.5914 30.1218 23.03V24.7847C30.1218 25.0354 30.1218 25.192 30.1218 25.3174C30.1218 25.4427 30.1218 25.5054 30.1532 25.5994C30.1845 25.6934 30.1845 25.756 30.2158 25.8187C30.2472 25.8814 30.2785 25.9127 30.3412 25.944C30.4038 25.9754 30.4665 26.0067 30.5918 26.0694V26.32H29.5265L29.4952 25.568ZM29.4325 24.0014C28.8998 24.0014 28.5238 24.0954 28.2418 24.2834C27.9912 24.4714 27.8345 24.722 27.8345 25.0667C27.8345 25.2547 27.8658 25.4114 27.9285 25.5054C27.9912 25.5994 28.0538 25.6934 28.1478 25.7247C28.2418 25.756 28.3358 25.7874 28.4612 25.7874C28.6492 25.7874 28.8058 25.7247 28.9312 25.6307C29.0878 25.5367 29.1818 25.38 29.2758 25.2234C29.3698 25.0354 29.4012 24.8787 29.4012 24.722V24.0014H29.4325Z" fill="white"/>
<path d="M34.9472 26.2887H33.4119V26.038C33.5059 26.0067 33.5998 25.9754 33.6312 25.944C33.6625 25.9127 33.7252 25.8814 33.7252 25.8187C33.7565 25.756 33.7878 25.6934 33.7878 25.568C33.8192 25.4427 33.8192 25.286 33.8192 25.0667V23.7507C33.8192 23.5 33.8192 23.312 33.7878 23.124C33.7878 22.936 33.7565 22.7794 33.7252 22.654C33.6939 22.5287 33.6625 22.4347 33.6312 22.372C33.5998 22.3094 33.5685 22.2467 33.5058 22.184C33.4432 22.1214 33.4118 22.09 33.3492 22.0587C33.2865 22.0274 33.1925 22.0274 33.0985 22.0274C33.0045 22.0274 32.9105 22.0587 32.8165 22.09C32.7225 22.1214 32.6285 22.2467 32.5032 22.372C32.4092 22.4974 32.3152 22.6227 32.2525 22.748C32.1898 22.8734 32.1898 22.9987 32.1898 23.1867V25.0667C32.1898 25.3487 32.1898 25.568 32.2212 25.662C32.2525 25.756 32.2838 25.85 32.3465 25.9127C32.4092 25.9754 32.5032 26.0067 32.6285 26.0694V26.32H31.0932V26.0694C31.1872 26.038 31.2812 26.0067 31.3125 25.9754C31.3438 25.944 31.3752 25.9127 31.4065 25.85C31.4378 25.7874 31.4692 25.7247 31.4692 25.5994C31.5005 25.5054 31.5005 25.3174 31.5005 25.098V22.9047C31.5005 22.6854 31.5005 22.5287 31.5005 22.372C31.5005 22.2467 31.4692 22.1214 31.4378 22.0587C31.4065 21.996 31.3752 21.9334 31.3125 21.8707C31.2498 21.8394 31.1559 21.808 31.0305 21.7767V21.526L31.9392 21.4634H32.1898V22.2467L32.2525 22.278C32.4405 22.0274 32.5972 21.8394 32.7225 21.7454C32.8478 21.6514 32.9732 21.5574 33.0985 21.4947C33.2239 21.432 33.3492 21.4007 33.4745 21.4007C33.5998 21.4007 33.7252 21.432 33.8505 21.4634C33.9445 21.4947 34.0698 21.5574 34.1325 21.6514C34.2265 21.7454 34.2892 21.8394 34.3519 21.9647C34.4145 22.09 34.4459 22.2467 34.4772 22.4347C34.5085 22.6227 34.5085 22.842 34.5085 23.124V25.0354C34.5085 25.2547 34.5085 25.4427 34.5398 25.5367C34.5398 25.6307 34.5712 25.7247 34.6025 25.7874C34.6338 25.85 34.6652 25.8814 34.7278 25.944C34.7905 25.9754 34.8532 26.0067 34.9785 26.0694L34.9472 26.2887Z" fill="white"/>
<path d="M38.2372 20.8054C38.2372 20.492 38.2372 20.2414 38.2372 20.116C38.2372 19.9907 38.2059 19.8654 38.2059 19.8027C38.1746 19.7087 38.1746 19.646 38.1432 19.5834C38.1119 19.5207 38.0806 19.4894 38.0179 19.458C37.9552 19.4267 37.8612 19.3954 37.7359 19.364V19.1134L38.6759 19.0507H38.8952V24.8787C38.8952 25.1294 38.8952 25.3174 38.8952 25.4427C38.8952 25.568 38.9266 25.662 38.9579 25.7247C38.9892 25.7874 39.0206 25.85 39.0832 25.8814C39.1459 25.9127 39.2399 25.9754 39.3652 26.0067V26.2574L38.4566 26.32H38.2059L38.2686 25.5054L38.2059 25.474C38.0492 25.6934 37.8926 25.8814 37.7672 25.9754C37.6419 26.1007 37.5166 26.1947 37.3912 26.2574C37.2659 26.32 37.1092 26.3514 36.9526 26.3514C36.5139 26.3514 36.2006 26.132 35.9499 25.7247C35.7306 25.3174 35.6052 24.6907 35.6052 23.9074C35.6052 23.3434 35.6679 22.8734 35.8246 22.4974C35.9812 22.1214 36.1692 21.8394 36.4512 21.6514C36.7332 21.4634 36.9839 21.3694 37.3286 21.3694C37.5166 21.3694 37.6732 21.4007 37.7986 21.432C37.9239 21.4634 38.0806 21.526 38.2372 21.62V20.8054ZM38.2372 23.312C38.2372 23.0614 38.2372 22.842 38.2059 22.6854C38.1746 22.5287 38.1432 22.4034 38.1119 22.278C38.0806 22.184 38.0179 22.09 37.9239 21.996C37.8612 21.9334 37.7672 21.8707 37.6732 21.8394C37.5792 21.808 37.4852 21.7767 37.3599 21.7767C37.0152 21.7767 36.7646 21.9334 36.6079 22.3094C36.4199 22.654 36.3572 23.1554 36.3572 23.782C36.3572 24.4087 36.4199 24.91 36.5766 25.2547C36.7332 25.5994 36.9526 25.756 37.2346 25.756C37.3599 25.756 37.4539 25.756 37.5166 25.7247C37.5792 25.6934 37.6732 25.662 37.7359 25.5994C37.7986 25.5367 37.8926 25.474 37.9552 25.38C38.0179 25.286 38.0806 25.192 38.1119 25.1294C38.1432 25.0667 38.1746 24.9414 38.2059 24.8474C38.2372 24.7534 38.2372 24.5967 38.2372 24.44V23.312Z" fill="white"/>
<path d="M39.4277 27.4167H8.5957V27.918H39.4277V27.4167Z" fill="white"/>
</g>
<rect x="0.793213" y="0.25" width="46.5" height="46.5" stroke="white" stroke-width="0.5"/>
<defs>
<clipPath id="clip0_26_52">
<rect x="0.543213" width="47" height="47" fill="white"/>
</clipPath>
</defs>
</svg>
