<svg width="26" height="26" viewBox="0 0 26 26" fill="none" xmlns="http://www.w3.org/2000/svg">
<circle cx="13.3337" cy="13.1244" r="12.5" fill="white"/>
<path d="M5.59619 8.35022V17.8986H10.2091C10.6365 17.8986 13.5801 17.8119 13.5801 15.1244C13.5801 13.445 12.4248 12.8744 11.8381 12.7051C12.2696 12.5014 13.1285 12.0176 13.1285 10.7212C13.1285 9.99942 13.0256 8.35022 10.0801 8.35022H5.59619ZM16.1123 9.23732V10.1083H19.6769V9.23732H16.1123ZM7.69297 9.97925H9.66071C9.8462 9.97925 11.0962 9.88046 11.0962 11.076C11.0962 12.0982 10.193 12.2051 9.822 12.2051H7.69297V9.97925ZM17.9833 10.8986C15.2877 10.8986 14.7252 13.2393 14.7252 14.2535C14.7252 17.2635 17.193 17.6083 17.9833 17.6083C20.1144 17.6083 20.7192 16.2293 20.9672 15.4631H19.4188C19.3583 15.6607 18.9067 16.3018 18.0478 16.3018C16.6083 16.3018 16.4833 15.1768 16.4833 14.6728H21.064C21.1567 12.9309 20.3946 10.8986 17.9833 10.8986ZM17.9349 12.2051C18.3644 12.2051 18.7111 12.3301 18.9188 12.5599C19.1265 12.7918 19.2797 13.1305 19.322 13.576H16.4833C16.4914 13.453 16.5196 13.3119 16.5639 13.1567C16.6083 12.9974 16.6769 12.8462 16.7898 12.7051C16.9027 12.566 17.0599 12.445 17.2414 12.3502C17.4269 12.2535 17.6567 12.2051 17.9349 12.2051ZM7.69297 13.6405H9.96716C10.4188 13.6405 11.4833 13.7111 11.4833 15.0115C11.4833 16.2716 10.1426 16.2696 9.93491 16.2696H7.69297V13.6405Z" fill="#D71A22"/>
</svg>
