<svg width="100" height="29" viewBox="0 0 100 29" fill="none" xmlns="http://www.w3.org/2000/svg">
<path d="M12.5 23.3017L11.5 23.6017L10.6 22.4017C10.1 22.8017 9.5 23.1017 8.9 23.3017C8.3 23.5017 7.6 23.6017 6.9 23.6017C4.8 23.6017 3.2 22.7017 2.1 20.8017C0.999998 18.9017 0.5 16.2017 0.5 12.5017C0.5 10.2017 0.8 8.20166 1.4 6.50166C2 4.80166 2.8 3.40166 3.9 2.50166C5 1.60166 6.3 1.10165 7.8 1.10165C8.6 1.10165 9.3 1.20165 10 1.30165C10.7 1.40165 11.5 1.60166 12.4 1.90166V6.30166H11.2C11 5.30166 10.7 4.60166 10.4 4.00166C10.1 3.50166 9.7 3.10165 9.3 2.80165C8.9 2.60165 8.3 2.50166 7.7 2.50166C6.8 2.50166 6 2.90165 5.3 3.60165C4.6 4.40165 4.1 5.50166 3.7 6.90166C3.3 8.40166 3.1 10.1017 3.1 12.2017C3.1 14.3017 3.3 16.1017 3.6 17.6017C3.9 19.1017 4.4 20.2017 5 21.0017C5.6 21.8017 6.4 22.1017 7.3 22.1017C8.3 22.1017 9 21.8017 9.5 21.3017C10 20.8017 10.2 19.9017 10.2 18.7017V17.7017C10.2 16.7017 10.2 16.0017 10.1 15.6017C10 15.2017 9.9 14.8017 9.7 14.6017C9.5 14.4017 9.2 14.2017 8.7 14.0017V13.2017H13.7V14.0017C13.4 14.1017 13.2 14.3017 13 14.4017C12.8 14.6017 12.7 14.8017 12.7 15.0017C12.6 15.2017 12.6 15.6017 12.5 15.9017C12.4 16.2017 12.5 16.8017 12.5 17.4017V23.3017Z" fill="white"/>
<path d="M25.8 20.7016C25.3 21.4016 24.8 22.0016 24.3 22.4016C23.8 22.8016 23.4 23.1016 22.8 23.4016C22.3 23.6016 21.7 23.7016 21 23.7016C19.3 23.7016 18 23.0016 17.1 21.7016C16.2 20.4016 15.8 18.4017 15.8 15.8017C15.8 14.2017 16 12.8016 16.5 11.6016C17 10.4016 17.6 9.40165 18.4 8.80165C19.2 8.10165 20.2001 7.80165 21.2001 7.80165C22.0001 7.80165 22.8 8.00165 23.4 8.30165C24 8.60165 24.5 9.10164 24.8 9.70164C25.1 10.3016 25.4 11.0016 25.6 11.9016C25.8 12.8016 25.9 14.0016 25.9 15.5016H18V15.8017C18 17.1017 18.1 18.1016 18.3 19.0016C18.5 19.9016 18.9 20.5016 19.4 21.0016C19.9 21.5016 20.6 21.7016 21.4 21.7016C22.1 21.7016 22.7001 21.5016 23.2001 21.2016C23.7001 20.9016 24.3 20.3016 24.8 19.6016L25.8 20.7016ZM23.8 14.1016C23.8 12.9016 23.6 12.0017 23.5 11.3017C23.3 10.6017 23.1001 10.0016 22.7001 9.60165C22.4001 9.20165 21.9 9.00165 21.3 9.00165C20.4 9.00165 19.8 9.40165 19.3 10.3017C18.8 11.2017 18.5 12.5016 18.4 14.1016H23.8Z" fill="white"/>
<path d="M27.6001 8.80166C28.0001 8.70166 28.4001 8.60166 28.6001 8.40166C28.9001 8.20166 29.1001 7.90165 29.2001 7.60165C29.4001 7.30165 29.5001 6.80166 29.5001 6.30166C29.6001 5.80166 29.7001 5.10165 29.8001 4.10165H31.6001V8.10165H35.6001V9.70165H31.6001V16.9017C31.6001 17.9017 31.6001 18.8017 31.7001 19.4017C31.8001 20.0017 31.9001 20.5017 32.1001 20.8017C32.3001 21.1017 32.5001 21.4017 32.7001 21.6017C32.9001 21.8017 33.2001 21.8017 33.6001 21.8017C33.9001 21.8017 34.3001 21.7017 34.5001 21.5017C34.8001 21.3017 35.1001 21.1017 35.4001 20.7017L36.0001 21.6017C35.4001 22.3017 34.8001 22.9017 34.3001 23.2017C33.8001 23.5017 33.2001 23.7017 32.7001 23.7017C31.6001 23.7017 30.8001 23.3017 30.3001 22.5017C29.8001 21.7017 29.5001 20.4017 29.5001 18.6017V9.70165H27.7001L27.6001 8.80166Z" fill="white"/>
<path d="M39.9999 10.5017C40.5999 9.70165 41.0999 9.20165 41.4999 8.80165C41.8999 8.40166 42.3 8.20165 42.7 8.00165C43.1 7.80165 43.5999 7.70165 43.9999 7.70165C44.8999 7.70165 45.6999 8.00165 46.2999 8.60165C46.9 9.20165 47.4 10.1016 47.7999 11.2016C48.0999 12.4016 48.2999 13.8017 48.2999 15.5017C48.2999 17.3017 48.1 18.7017 47.7 19.9017C47.3 21.1017 46.6999 22.0016 45.8999 22.6017C45.0999 23.2017 44.1 23.5017 43.1 23.5017C42.5 23.5017 41.8999 23.4017 41.3999 23.3017C40.7999 23.1017 40.3 22.9017 39.7 22.5017L38.7999 23.5017L37.7999 23.4017V5.90165C37.7999 4.90165 37.7999 4.10165 37.7999 3.70165C37.7999 3.30165 37.8 2.90165 37.7 2.70165C37.6 2.40165 37.6 2.20165 37.5 2.00165C37.4 1.80165 37.2999 1.70165 37.0999 1.60165C36.8999 1.50165 36.6 1.40165 36.2 1.30165V0.501652L39.2 0.301651H39.8999L39.9999 10.5017ZM39.9999 17.6017C39.9999 18.4016 40 19.1017 40.1 19.6017C40.2 20.1017 40.2999 20.5017 40.3999 20.8017C40.4999 21.1017 40.6999 21.4016 40.9999 21.7016C41.2999 22.0016 41.5999 22.1017 41.8999 22.3017C42.1999 22.4017 42.5999 22.5017 42.9999 22.5017C43.9999 22.5017 44.7999 22.0017 45.2999 20.9017C45.7999 19.8017 46.1 18.3016 46.1 16.2016C46.1 14.1016 45.8999 12.5017 45.3999 11.4017C44.8999 10.3017 44.1999 9.80165 43.2999 9.80165C42.7999 9.80165 42.4 9.90165 42.1 10.1017C41.8 10.3017 41.4 10.6017 41.1 11.0017C40.8 11.4017 40.4999 11.8016 40.3999 12.2016C40.1999 12.6016 40.2 13.0017 40.2 13.5017L39.9999 17.6017Z" fill="white"/>
<path d="M54.2001 10.7017H54.4001C54.9001 10.0017 55.3001 9.40166 55.7001 9.00166C56.1001 8.60166 56.5001 8.30166 57.0001 8.00166C57.5001 7.80166 58.0001 7.70165 58.5001 7.70165C59.0001 7.70165 59.4001 7.70166 59.8001 7.80166V11.5017H58.4001C58.2001 10.9017 58.0001 10.5017 57.8001 10.2017C57.6001 9.90165 57.3001 9.80166 56.9001 9.80166C56.6001 9.80166 56.3001 9.90165 56.0001 10.1017C55.7001 10.3017 55.4001 10.7017 55.2001 11.1017C54.9001 11.5017 54.7001 11.9017 54.6001 12.3017C54.5001 12.7017 54.4001 13.1017 54.4001 13.6017V19.2017C54.4001 20.2017 54.5001 20.9017 54.5001 21.2017C54.6001 21.6017 54.7001 21.8017 55.0001 22.0017C55.2001 22.2017 55.5001 22.3017 55.9001 22.4017V23.2017H50.9001V22.4017C51.2001 22.3017 51.4001 22.2017 51.6001 22.1017C51.8001 22.0017 51.9001 21.9017 51.9001 21.7017C52.0001 21.5017 52.1001 21.3017 52.1001 20.9017C52.2001 20.6017 52.2001 20.0017 52.2001 19.2017V12.2017C52.2001 11.5017 52.2001 11.0017 52.2001 10.5017C52.2001 10.1017 52.1001 9.70166 52.0001 9.50166C51.9001 9.20166 51.8001 9.10166 51.5001 8.90166C51.3001 8.80166 51.0001 8.70165 50.6001 8.60165V7.80166L53.5001 7.60165H54.3001L54.2001 10.7017Z" fill="white"/>
<path d="M68.2001 21.1016L68 21.0016C67.3 21.9016 66.6 22.6016 66 23.0016C65.4 23.4016 64.7 23.6016 64 23.6016C63.4 23.6016 62.8 23.4016 62.3 23.1016C61.8 22.8016 61.5001 22.3017 61.2001 21.8017C60.9001 21.3017 60.8 20.6017 60.8 19.8017C60.8 18.2017 61.4001 17.0016 62.6001 16.2016C63.8001 15.4016 65.6 14.9016 68 14.7016V13.6016C68 12.5016 67.9 11.6016 67.8 11.0016C67.6 10.3016 67.4 9.90165 67 9.60165C66.7 9.30165 66.2001 9.20164 65.6001 9.20164C64.9001 9.20164 64.4 9.40165 64 9.90165C63.6 10.3016 63.3001 11.0016 63.1001 11.9016H61.5V9.80165C62.3 9.30165 63 8.90165 63.5 8.60165C64 8.30165 64.6001 8.20165 65.1001 8.00165C65.6001 7.80165 66.2001 7.80165 66.7001 7.80165C67.5001 7.80165 68.2001 8.00165 68.7001 8.30165C69.2001 8.60165 69.6 9.10165 69.8 9.80165C70 10.5017 70.2001 11.6016 70.2001 13.0016V18.6016C70.2001 19.4016 70.2001 19.9017 70.2001 20.3017C70.2001 20.7017 70.2 20.9016 70.3 21.2016C70.4 21.5016 70.4 21.7016 70.5 21.9016C70.6 22.1016 70.7 22.2017 70.9 22.3017C71.1 22.4017 71.3001 22.5016 71.7001 22.7016V23.5016H68.3L68.2001 21.1016ZM68 16.1016C66.3 16.1016 65.1001 16.4016 64.2001 17.0016C63.4001 17.6016 62.9 18.4016 62.9 19.5016C62.9 20.1016 63.0001 20.6016 63.2001 20.9016C63.4001 21.2016 63.6 21.5016 63.9 21.6016C64.2 21.7016 64.5 21.8017 64.9 21.8017C65.5 21.8017 66 21.6017 66.4 21.3017C66.9 21.0017 67.2 20.5016 67.5 20.0016C67.8 19.4016 67.9 18.9016 67.9 18.4016V16.1016H68Z" fill="white"/>
<path d="M85.6001 23.4016H80.7001V22.6016C81.0001 22.5016 81.3001 22.4017 81.4001 22.3017C81.5001 22.2017 81.7001 22.1016 81.7001 21.9016C81.8001 21.7016 81.9001 21.5016 81.9001 21.1016C82.0001 20.7016 82.0001 20.2016 82.0001 19.5016V15.3017C82.0001 14.5017 82.0001 13.9017 81.9001 13.3017C81.9001 12.7017 81.8001 12.2017 81.7001 11.8017C81.6001 11.4017 81.5001 11.1016 81.4001 10.9016C81.3001 10.7016 81.2001 10.5017 81.0001 10.3017C80.8001 10.1017 80.7001 10.0016 80.5001 9.90165C80.3001 9.80165 80.0001 9.80165 79.7001 9.80165C79.4001 9.80165 79.1001 9.90165 78.8001 10.0016C78.5001 10.1016 78.2001 10.5016 77.8001 10.9016C77.5001 11.3016 77.2001 11.7016 77.0001 12.1016C76.8001 12.5016 76.8001 12.9016 76.8001 13.5016V19.5016C76.8001 20.4016 76.8001 21.1016 76.9001 21.4016C77.0001 21.7016 77.1001 22.0016 77.3001 22.2016C77.5001 22.4016 77.8001 22.5016 78.2001 22.7016V23.5016H73.3001V22.7016C73.6001 22.6016 73.9001 22.5016 74.0001 22.4016C74.1001 22.3016 74.2001 22.2016 74.3001 22.0016C74.4001 21.8016 74.5001 21.6016 74.5001 21.2016C74.6001 20.9016 74.6001 20.3016 74.6001 19.6016V12.6016C74.6001 11.9016 74.6001 11.4016 74.6001 10.9016C74.6001 10.5016 74.5001 10.1016 74.4001 9.90165C74.3001 9.70165 74.2001 9.50165 74.0001 9.30165C73.8001 9.20165 73.5001 9.10165 73.1001 9.00165V8.20164L76.0001 8.00165H76.8001V10.5016L77.0001 10.6016C77.6001 9.80165 78.1001 9.20165 78.5001 8.90165C78.9001 8.60165 79.3001 8.30165 79.7001 8.10165C80.1001 7.90165 80.5001 7.80165 80.9001 7.80165C81.3001 7.80165 81.7001 7.90165 82.1001 8.00165C82.4001 8.10165 82.8001 8.30165 83.0001 8.60165C83.3001 8.90165 83.5001 9.20165 83.7001 9.60165C83.9001 10.0016 84.0001 10.5016 84.1001 11.1016C84.2001 11.7016 84.2001 12.4017 84.2001 13.3017V19.4016C84.2001 20.1016 84.2001 20.7016 84.3001 21.0016C84.3001 21.3016 84.4001 21.6017 84.5001 21.8017C84.6001 22.0017 84.7001 22.1017 84.9001 22.3017C85.1001 22.4017 85.3001 22.5016 85.7001 22.7016L85.6001 23.4016Z" fill="white"/>
<path d="M96.1 5.90165C96.1 4.90165 96.1 4.10165 96.1 3.70165C96.1 3.30165 95.9999 2.90165 95.9999 2.70165C95.8999 2.40165 95.9 2.20165 95.7999 2.00165C95.6999 1.80165 95.5999 1.70165 95.3999 1.60165C95.1999 1.50165 94.8999 1.40165 94.4999 1.30165V0.501652L97.4999 0.301651H98.2V18.9017C98.2 19.7017 98.2 20.3016 98.2 20.7016C98.2 21.1016 98.2999 21.4016 98.3999 21.6017C98.4999 21.8017 98.5999 22.0016 98.7999 22.1017C98.9999 22.2017 99.3 22.4017 99.7 22.5017V23.3017L96.7999 23.5017H95.9999L96.2 20.9017L95.9999 20.8017C95.4999 21.5017 95 22.1017 94.6 22.4017C94.2 22.8017 93.7999 23.1017 93.3999 23.3017C92.9999 23.5017 92.4999 23.6017 91.9999 23.6017C90.5999 23.6017 89.5999 22.9016 88.7999 21.6017C88.0999 20.3017 87.7 18.3017 87.7 15.8017C87.7 14.0017 87.8999 12.5017 88.3999 11.3017C88.8999 10.1017 89.4999 9.20165 90.3999 8.60165C91.2999 8.00165 92.1 7.70165 93.2 7.70165C93.8 7.70165 94.3 7.80165 94.7 7.90165C95.1 8.00165 95.6 8.20165 96.1 8.50165V5.90165ZM96.1 13.9017C96.1 13.1017 96.0999 12.4017 95.9999 11.9017C95.8999 11.4017 95.8 11.0016 95.7 10.6017C95.6 10.3017 95.4 10.0016 95.1 9.70165C94.9 9.50165 94.5999 9.30165 94.2999 9.20165C93.9999 9.10165 93.6999 9.00165 93.2999 9.00165C92.1999 9.00165 91.3999 9.50165 90.8999 10.7016C90.2999 11.8016 90.1 13.4017 90.1 15.4017C90.1 17.4017 90.2999 19.0016 90.7999 20.1017C91.2999 21.2017 91.9999 21.7016 92.8999 21.7016C93.2999 21.7016 93.5999 21.7017 93.7999 21.6017C93.9999 21.5016 94.2999 21.4016 94.4999 21.2016C94.6999 21.0016 95 20.8017 95.2 20.5017C95.4 20.2017 95.6 19.9016 95.7 19.7016C95.8 19.5016 95.8999 19.1017 95.9999 18.8017C96.0999 18.5017 96.1 18.0017 96.1 17.5017V13.9017Z" fill="white"/>
<path d="M99.9 27.0016H1.5V28.6016H99.9V27.0016Z" fill="white"/>
</svg>
