<svg width="42" height="42" viewBox="0 0 42 42" fill="none" xmlns="http://www.w3.org/2000/svg">
<circle cx="20.761" cy="20.6467" r="20.6467" fill="white"/>
<path d="M30.2232 10.065C29.8152 9.71902 29.1743 9.66951 28.5117 9.93555H28.5106C27.8137 10.2152 8.78303 18.378 8.00831 18.7115C7.8674 18.7605 6.63678 19.2196 6.76354 20.2424C6.8767 21.1646 7.86577 21.5465 7.98655 21.5906L12.8247 23.2472C13.1457 24.3157 14.329 28.2578 14.5907 29.1C14.7539 29.625 15.0199 30.3149 15.4862 30.4569C15.8953 30.6146 16.3023 30.4705 16.5656 30.2637L19.5235 27.5201L24.2986 31.2441L24.4123 31.3121C24.7366 31.4557 25.0472 31.5275 25.3437 31.5275C25.5727 31.5275 25.7925 31.4846 26.0025 31.3986C26.718 31.1048 27.0041 30.4231 27.034 30.3459L30.6008 11.8065C30.8184 10.8164 30.5159 10.3126 30.2232 10.065ZM17.0917 23.9098L15.4595 28.2622L13.8274 22.8218L26.3404 13.573L17.0917 23.9098Z" fill="#D71A22"/>
</svg>
