<svg width="26" height="26" viewBox="0 0 26 26" fill="none" xmlns="http://www.w3.org/2000/svg">
	<circle cx="12.7402" cy="12.6694" r="12.5" fill="#fff" />
	<path d="M19.3392 9.35891C19.1804 8.76938 18.7156 8.30456 18.1261 8.14584C17.0491 7.85107 12.741 7.85107 12.741 7.85107C12.741 7.85107 8.43289 7.85107 7.35587 8.1345C6.77768 8.29322 6.30152 8.76938 6.1428 9.35891C5.85938 10.4359 5.85938 12.6693 5.85938 12.6693C5.85938 12.6693 5.85938 14.9141 6.1428 15.9798C6.30152 16.5693 6.76634 17.0341 7.35587 17.1928C8.44423 17.4876 12.741 17.4876 12.741 17.4876C12.741 17.4876 17.0491 17.4876 18.1261 17.2042C18.7156 17.0454 19.1804 16.5806 19.3392 15.9911C19.6226 14.9141 19.6226 12.6807 19.6226 12.6807C19.6226 12.6807 19.6339 10.4359 19.3392 9.35891Z" fill="#D71A22" />
	<path d="M11.3711 10.606V14.7327L14.9536 12.6693L11.3711 10.606Z" fill="#fff" />
</svg>
