<svg width="48" height="48" viewBox="0 0 48 48" fill="none" xmlns="http://www.w3.org/2000/svg">
<g clip-path="url(#clip0_49_134)">
<path d="M47.5432 0.227539H0.543213V47.2275H47.5432V0.227539Z" fill="#D71A22"/>
<path d="M12.0425 26.4851L11.7291 26.5791L11.4471 26.2031C11.2905 26.3284 11.1025 26.4224 10.9145 26.4851C10.7265 26.5477 10.5071 26.5791 10.2878 26.5791C9.6298 26.5791 9.12847 26.2971 8.7838 25.7017C8.43914 25.1064 8.28247 24.2604 8.28247 23.1011C8.28247 22.3804 8.37647 21.7537 8.56447 21.2211C8.75247 20.6884 9.00314 20.2497 9.3478 19.9677C9.69247 19.6857 10.0998 19.5291 10.5698 19.5291C10.8205 19.5291 11.0398 19.5604 11.2591 19.5917C11.4785 19.6231 11.7291 19.6857 12.0111 19.7797V21.1584H11.6351C11.5725 20.8451 11.4785 20.6257 11.3845 20.4377C11.2905 20.2811 11.1651 20.1557 11.0398 20.0617C10.9145 19.9991 10.7265 19.9677 10.5385 19.9677C10.2565 19.9677 10.0058 20.0931 9.78647 20.3124C9.56714 20.5631 9.41047 20.9077 9.28514 21.3464C9.1598 21.8164 9.09714 22.3491 9.09714 23.0071C9.09714 23.6651 9.1598 24.2291 9.2538 24.6991C9.3478 25.1691 9.50447 25.5137 9.69247 25.7644C9.88047 26.0151 10.1311 26.1091 10.4131 26.1091C10.7265 26.1091 10.9458 26.0151 11.1025 25.8584C11.2591 25.7017 11.3218 25.4197 11.3218 25.0437V24.7304C11.3218 24.4171 11.3218 24.1977 11.2905 24.0724C11.2591 23.9471 11.2278 23.8217 11.1651 23.7591C11.1025 23.6964 11.0085 23.6337 10.8518 23.5711V23.3204H12.4185V23.5711C12.3245 23.6024 12.2618 23.6651 12.1991 23.6964C12.1365 23.7591 12.1051 23.8217 12.1051 23.8844C12.0738 23.9471 12.0738 24.0724 12.0425 24.1664C12.0111 24.2604 12.0425 24.4484 12.0425 24.6364V26.4851Z" fill="white"/>
<path d="M16.2097 25.6704C16.0531 25.8898 15.8964 26.0778 15.7397 26.2031C15.5831 26.3284 15.4577 26.4224 15.2697 26.5164C15.1131 26.5791 14.9251 26.6104 14.7057 26.6104C14.1731 26.6104 13.7657 26.3911 13.4837 25.9837C13.2017 25.5764 13.0764 24.9498 13.0764 24.1351C13.0764 23.6338 13.1391 23.1951 13.2957 22.8191C13.4524 22.4431 13.6404 22.1298 13.8911 21.9418C14.1417 21.7224 14.4551 21.6284 14.7684 21.6284C15.0191 21.6284 15.2697 21.6911 15.4577 21.7851C15.6457 21.8791 15.8024 22.0357 15.8964 22.2237C15.9904 22.4117 16.0844 22.6311 16.1471 22.9131C16.2097 23.1951 16.2411 23.5711 16.2411 24.0411H13.7657V24.1351C13.7657 24.5424 13.7971 24.8558 13.8597 25.1378C13.9224 25.4198 14.0477 25.6078 14.2044 25.7644C14.3611 25.9211 14.5804 25.9837 14.8311 25.9837C15.0504 25.9837 15.2384 25.9211 15.3951 25.8271C15.5517 25.7331 15.7397 25.5451 15.8964 25.3258L16.2097 25.6704ZM15.5831 23.6024C15.5831 23.2264 15.5204 22.9444 15.4891 22.7251C15.4264 22.5058 15.3637 22.3177 15.2384 22.1924C15.1444 22.0671 14.9877 22.0044 14.7997 22.0044C14.5177 22.0044 14.3297 22.1298 14.1731 22.4118C14.0164 22.6938 13.9224 23.1011 13.8911 23.6024H15.5831Z" fill="white"/>
<path d="M16.7739 21.9417C16.8993 21.9103 17.0246 21.879 17.0873 21.8163C17.1813 21.7537 17.2439 21.6597 17.2753 21.5657C17.3379 21.4717 17.3693 21.315 17.3693 21.1583C17.4006 21.0017 17.4319 20.7823 17.4633 20.469H18.0273V21.7223H19.2806V22.2237H18.0273V24.4797C18.0273 24.793 18.0273 25.075 18.0586 25.263C18.0899 25.451 18.1213 25.6077 18.1839 25.7017C18.2466 25.7957 18.3093 25.8897 18.3719 25.9523C18.4346 26.015 18.5286 26.015 18.6539 26.015C18.7479 26.015 18.8733 25.9837 18.9359 25.921C19.0299 25.8583 19.1239 25.7957 19.2179 25.6703L19.4059 25.9523C19.2179 26.1717 19.0299 26.3597 18.8733 26.4537C18.7166 26.5477 18.5286 26.6103 18.3719 26.6103C18.0273 26.6103 17.7766 26.485 17.6199 26.2343C17.4633 25.9837 17.3693 25.5763 17.3693 25.0123V22.2237H16.8053L16.7739 21.9417Z" fill="white"/>
<path d="M20.6592 22.4743C20.8472 22.2237 21.0038 22.067 21.1292 21.9417C21.2545 21.8163 21.3798 21.7537 21.5052 21.691C21.6305 21.6283 21.7872 21.597 21.9125 21.597C22.1945 21.597 22.4452 21.691 22.6332 21.879C22.8212 22.067 22.9778 22.349 23.1032 22.6937C23.1972 23.0697 23.2598 23.5083 23.2598 24.041C23.2598 24.605 23.1972 25.0437 23.0718 25.4197C22.9465 25.7957 22.7585 26.0777 22.5078 26.2657C22.2572 26.4537 21.9438 26.5477 21.6305 26.5477C21.4425 26.5477 21.2545 26.5163 21.0978 26.485C20.9098 26.4223 20.7532 26.3597 20.5652 26.2343L20.2832 26.5477L19.9698 26.5163V21.033C19.9698 20.7197 19.9698 20.469 19.9698 20.3437C19.9698 20.2183 19.9698 20.093 19.9385 20.0303C19.9072 19.9363 19.9072 19.8737 19.8758 19.811C19.8445 19.7483 19.8132 19.717 19.7505 19.6857C19.6878 19.6543 19.5938 19.623 19.4685 19.5917V19.341L20.4085 19.2783H20.6278L20.6592 22.4743ZM20.6592 24.699C20.6592 24.9497 20.6592 25.169 20.6905 25.3257C20.7218 25.4823 20.7532 25.6077 20.7845 25.7017C20.8158 25.7957 20.8785 25.8897 20.9725 25.9837C21.0665 26.0777 21.1605 26.109 21.2545 26.1717C21.3485 26.203 21.4738 26.2343 21.5992 26.2343C21.9125 26.2343 22.1632 26.0777 22.3198 25.733C22.4765 25.3883 22.5705 24.9183 22.5705 24.2603C22.5705 23.6023 22.5078 23.101 22.3512 22.7563C22.1945 22.4117 21.9752 22.255 21.6932 22.255C21.5365 22.255 21.4112 22.2863 21.3172 22.349C21.2232 22.4117 21.0978 22.5057 21.0038 22.631C20.9098 22.7563 20.8158 22.8817 20.7845 23.007C20.7218 23.1323 20.7218 23.2577 20.7218 23.4143L20.6592 24.699Z" fill="white"/>
<path d="M25.1085 22.537H25.1711C25.3278 22.3177 25.4531 22.1297 25.5785 22.0043C25.7038 21.879 25.8291 21.785 25.9858 21.691C26.1425 21.6283 26.2991 21.597 26.4558 21.597C26.6125 21.597 26.7378 21.597 26.8631 21.6283V22.7877H26.4245C26.3618 22.5997 26.2991 22.4743 26.2365 22.3803C26.1738 22.2863 26.0798 22.255 25.9545 22.255C25.8605 22.255 25.7665 22.2863 25.6725 22.349C25.5785 22.4117 25.4845 22.537 25.4218 22.6623C25.3278 22.7877 25.2651 22.913 25.2338 23.0383C25.2025 23.1637 25.1711 23.289 25.1711 23.4457V25.2003C25.1711 25.5137 25.2025 25.733 25.2025 25.827C25.2338 25.9523 25.2651 26.015 25.3591 26.0777C25.4218 26.1403 25.5158 26.1717 25.6411 26.203V26.4537H24.0745V26.203C24.1685 26.1717 24.2311 26.1403 24.2938 26.109C24.3565 26.0777 24.3878 26.0463 24.3878 25.9837C24.4191 25.921 24.4505 25.8583 24.4505 25.733C24.4818 25.639 24.4818 25.451 24.4818 25.2003V23.007C24.4818 22.7877 24.4818 22.631 24.4818 22.4743C24.4818 22.349 24.4505 22.2237 24.4191 22.161C24.3878 22.067 24.3565 22.0357 24.2625 21.973C24.1998 21.9417 24.1058 21.9103 23.9805 21.879V21.6283L24.8891 21.5657H25.1398L25.1085 22.537Z" fill="white"/>
<path d="M29.4952 25.7958L29.4325 25.7644C29.2132 26.0464 28.9938 26.2658 28.8058 26.3911C28.6178 26.5164 28.3985 26.5791 28.1792 26.5791C27.9912 26.5791 27.8032 26.5164 27.6465 26.4224C27.4898 26.3284 27.3958 26.1718 27.3018 26.0151C27.2078 25.8584 27.1765 25.6391 27.1765 25.3884C27.1765 24.8871 27.3645 24.5111 27.7405 24.2604C28.1165 24.0097 28.6805 23.8531 29.4325 23.7904V23.4457C29.4325 23.1011 29.4012 22.8191 29.3698 22.6311C29.3072 22.4118 29.2445 22.2864 29.1192 22.1924C29.0252 22.0984 28.8685 22.0671 28.6805 22.0671C28.4612 22.0671 28.3045 22.1298 28.1792 22.2864C28.0538 22.4118 27.9598 22.6311 27.8972 22.9131H27.3958V22.2551C27.6465 22.0984 27.8658 21.9731 28.0225 21.8791C28.1792 21.7851 28.3672 21.7538 28.5238 21.6911C28.6805 21.6284 28.8685 21.6284 29.0252 21.6284C29.2758 21.6284 29.4952 21.6911 29.6518 21.7851C29.8085 21.8791 29.9338 22.0358 29.9965 22.2551C30.0592 22.4744 30.1218 22.8191 30.1218 23.2578V25.0124C30.1218 25.2631 30.1218 25.4198 30.1218 25.5451C30.1218 25.6704 30.1218 25.7331 30.1532 25.8271C30.1845 25.9211 30.1845 25.9838 30.2158 26.0464C30.2472 26.1091 30.2785 26.1404 30.3412 26.1718C30.4038 26.2031 30.4665 26.2344 30.5918 26.2971V26.5478H29.5265L29.4952 25.7958ZM29.4325 24.2291C28.8998 24.2291 28.5238 24.3231 28.2418 24.5111C27.9912 24.6991 27.8345 24.9498 27.8345 25.2944C27.8345 25.4824 27.8658 25.6391 27.9285 25.7331C27.9912 25.8271 28.0538 25.9211 28.1478 25.9524C28.2418 25.9838 28.3358 26.0151 28.4612 26.0151C28.6492 26.0151 28.8058 25.9524 28.9312 25.8584C29.0878 25.7644 29.1818 25.6078 29.2758 25.4511C29.3698 25.2631 29.4012 25.1064 29.4012 24.9498V24.2291H29.4325Z" fill="white"/>
<path d="M34.9472 26.5164H33.4119V26.2657C33.5059 26.2344 33.5998 26.2031 33.6312 26.1718C33.6625 26.1404 33.7252 26.1091 33.7252 26.0464C33.7565 25.9838 33.7878 25.9211 33.7878 25.7957C33.8192 25.6704 33.8192 25.5138 33.8192 25.2944V23.9784C33.8192 23.7278 33.8192 23.5398 33.7878 23.3518C33.7878 23.1638 33.7565 23.0071 33.7252 22.8818C33.6939 22.7564 33.6625 22.6624 33.6312 22.5998C33.5998 22.5371 33.5685 22.4744 33.5058 22.4118C33.4432 22.3491 33.4118 22.3178 33.3492 22.2864C33.2865 22.2551 33.1925 22.2551 33.0985 22.2551C33.0045 22.2551 32.9105 22.2864 32.8165 22.3178C32.7225 22.3491 32.6285 22.4744 32.5032 22.5998C32.4092 22.7251 32.3152 22.8504 32.2525 22.9757C32.1898 23.1011 32.1898 23.2264 32.1898 23.4144V25.2944C32.1898 25.5764 32.1898 25.7958 32.2212 25.8898C32.2525 25.9838 32.2838 26.0777 32.3465 26.1404C32.4092 26.2031 32.5032 26.2344 32.6285 26.2971V26.5478H31.0932V26.2971C31.1872 26.2657 31.2812 26.2344 31.3125 26.2031C31.3438 26.1718 31.3752 26.1404 31.4065 26.0778C31.4378 26.0151 31.4692 25.9524 31.4692 25.8271C31.5005 25.7331 31.5005 25.5451 31.5005 25.3257V23.1324C31.5005 22.9131 31.5005 22.7564 31.5005 22.5998C31.5005 22.4744 31.4692 22.3491 31.4378 22.2864C31.4065 22.2238 31.3752 22.1611 31.3125 22.0984C31.2498 22.0671 31.1559 22.0358 31.0305 22.0044V21.7537L31.9392 21.6911H32.1898V22.4744L32.2525 22.5057C32.4405 22.2551 32.5972 22.0671 32.7225 21.9731C32.8478 21.8791 32.9732 21.7851 33.0985 21.7224C33.2239 21.6597 33.3492 21.6284 33.4745 21.6284C33.5998 21.6284 33.7252 21.6598 33.8505 21.6911C33.9445 21.7224 34.0698 21.7851 34.1325 21.8791C34.2265 21.9731 34.2892 22.0671 34.3519 22.1924C34.4145 22.3177 34.4459 22.4744 34.4772 22.6624C34.5085 22.8504 34.5085 23.0698 34.5085 23.3518V25.2631C34.5085 25.4824 34.5085 25.6704 34.5398 25.7644C34.5398 25.8584 34.5712 25.9524 34.6025 26.0151C34.6338 26.0778 34.6652 26.1091 34.7278 26.1718C34.7905 26.2031 34.8532 26.2344 34.9785 26.2971L34.9472 26.5164Z" fill="white"/>
<path d="M38.2372 21.033C38.2372 20.7197 38.2372 20.469 38.2372 20.3437C38.2372 20.2183 38.2059 20.093 38.2059 20.0303C38.1746 19.9363 38.1746 19.8737 38.1432 19.811C38.1119 19.7483 38.0806 19.717 38.0179 19.6857C37.9552 19.6543 37.8612 19.623 37.7359 19.5917V19.341L38.6759 19.2783H38.8952V25.1063C38.8952 25.357 38.8952 25.545 38.8952 25.6703C38.8952 25.7957 38.9266 25.8897 38.9579 25.9523C38.9892 26.015 39.0206 26.0777 39.0832 26.109C39.1459 26.1403 39.2399 26.203 39.3652 26.2343V26.485L38.4566 26.5477H38.2059L38.2686 25.733L38.2059 25.7017C38.0492 25.921 37.8926 26.109 37.7672 26.203C37.6419 26.3283 37.5166 26.4223 37.3912 26.485C37.2659 26.5477 37.1092 26.579 36.9526 26.579C36.5139 26.579 36.2006 26.3597 35.9499 25.9523C35.7306 25.545 35.6052 24.9183 35.6052 24.135C35.6052 23.571 35.6679 23.101 35.8246 22.725C35.9812 22.349 36.1692 22.067 36.4512 21.879C36.7332 21.691 36.9839 21.597 37.3286 21.597C37.5166 21.597 37.6732 21.6283 37.7986 21.6597C37.9239 21.691 38.0806 21.7537 38.2372 21.8477V21.033ZM38.2372 23.5397C38.2372 23.289 38.2372 23.0697 38.2059 22.913C38.1746 22.7563 38.1432 22.631 38.1119 22.5057C38.0806 22.4117 38.0179 22.3177 37.9239 22.2237C37.8612 22.161 37.7672 22.0983 37.6732 22.067C37.5792 22.0357 37.4852 22.0043 37.3599 22.0043C37.0152 22.0043 36.7646 22.161 36.6079 22.537C36.4199 22.8817 36.3572 23.383 36.3572 24.0097C36.3572 24.6363 36.4199 25.1377 36.5766 25.4823C36.7332 25.827 36.9526 25.9837 37.2346 25.9837C37.3599 25.9837 37.4539 25.9837 37.5166 25.9523C37.5792 25.921 37.6732 25.8897 37.7359 25.827C37.7986 25.7643 37.8926 25.7017 37.9552 25.6077C38.0179 25.5137 38.0806 25.4197 38.1119 25.357C38.1432 25.2943 38.1746 25.169 38.2059 25.075C38.2372 24.981 38.2372 24.8243 38.2372 24.6677V23.5397Z" fill="white"/>
<path d="M39.4277 27.6443H8.5957V28.1456H39.4277V27.6443Z" fill="white"/>
</g>
<rect x="0.793213" y="0.477539" width="46.5" height="46.5" stroke="white" stroke-width="0.5"/>
<defs>
<clipPath id="clip0_49_134">
<rect x="0.543213" y="0.227539" width="47" height="47" fill="white"/>
</clipPath>
</defs>
</svg>
