<svg width="66" height="67" viewBox="0 0 66 67" fill="none" xmlns="http://www.w3.org/2000/svg">
<g clip-path="url(#clip0_26_82)">
<path d="M66 0.84491H0V66.8449H66V0.84491Z" fill="#D71A22"/>
<path d="M16.1479 37.7169L15.7079 37.8489L15.3119 37.3209C15.0919 37.4969 14.8279 37.6289 14.5639 37.7169C14.2999 37.8049 13.9919 37.8489 13.6839 37.8489C12.7599 37.8489 12.0559 37.4529 11.5719 36.6169C11.0879 35.7809 10.8679 34.5929 10.8679 32.9649C10.8679 31.9529 10.9999 31.0729 11.2639 30.3249C11.5279 29.5769 11.8799 28.9609 12.3639 28.5649C12.8479 28.1689 13.4199 27.9489 14.0799 27.9489C14.4319 27.9489 14.7399 27.9929 15.0479 28.0369C15.3559 28.0809 15.7079 28.1689 16.1039 28.3009V30.2369H15.5759C15.4879 29.7969 15.3559 29.4889 15.2239 29.2249C15.0919 29.0049 14.9159 28.8289 14.7399 28.6969C14.5639 28.6089 14.2999 28.5649 14.0359 28.5649C13.6399 28.5649 13.2879 28.7409 12.9799 29.0489C12.6719 29.4009 12.4519 29.8849 12.2759 30.5009C12.0999 31.1609 12.0119 31.9089 12.0119 32.8329C12.0119 33.7569 12.0999 34.5489 12.2319 35.2089C12.3639 35.8689 12.5839 36.3529 12.8479 36.7049C13.1119 37.0569 13.4639 37.1889 13.8599 37.1889C14.2999 37.1889 14.6079 37.0569 14.8279 36.8369C15.0479 36.6169 15.1359 36.2209 15.1359 35.6929V35.2529C15.1359 34.8129 15.1359 34.5049 15.0919 34.3289C15.0479 34.1529 15.0039 33.9769 14.9159 33.8889C14.8279 33.8009 14.6959 33.7129 14.4759 33.6249V33.2729H16.6759V33.6249C16.5439 33.6689 16.4559 33.7569 16.3679 33.8009C16.2799 33.8889 16.2359 33.9769 16.2359 34.0649C16.1919 34.1529 16.1919 34.3289 16.1479 34.4609C16.1039 34.5929 16.1479 34.8569 16.1479 35.1209V37.7169Z" fill="white"/>
<path d="M21.9999 36.5729C21.7799 36.8809 21.5599 37.1449 21.3399 37.3209C21.1199 37.4969 20.9439 37.6289 20.6799 37.7609C20.4599 37.8489 20.1959 37.8929 19.8879 37.8929C19.1399 37.8929 18.5679 37.5849 18.1719 37.0129C17.7759 36.4409 17.5999 35.5609 17.5999 34.4169C17.5999 33.7129 17.6879 33.0969 17.9079 32.5689C18.1279 32.0409 18.3919 31.6009 18.7439 31.3369C19.0959 31.0289 19.5359 30.8969 19.9759 30.8969C20.3279 30.8969 20.6799 30.9849 20.9439 31.1169C21.2079 31.2489 21.4279 31.4689 21.5599 31.7329C21.6919 31.9969 21.8239 32.3049 21.9119 32.7009C21.9999 33.0969 22.0439 33.6249 22.0439 34.2849H18.5679V34.4169C18.5679 34.9889 18.6119 35.4289 18.6999 35.8249C18.7879 36.2209 18.9639 36.4849 19.1839 36.7049C19.4039 36.9249 19.7119 37.0129 20.0639 37.0129C20.3719 37.0129 20.6359 36.9249 20.8559 36.7929C21.0759 36.6609 21.3399 36.3969 21.5599 36.0889L21.9999 36.5729ZM21.1199 33.6689C21.1199 33.1409 21.0319 32.7449 20.9879 32.4369C20.8999 32.1289 20.8119 31.8649 20.6359 31.6889C20.5039 31.5129 20.2839 31.4249 20.0199 31.4249C19.6239 31.4249 19.3599 31.6009 19.1399 31.9969C18.9199 32.3929 18.7879 32.9649 18.7439 33.6689H21.1199Z" fill="white"/>
<path d="M22.792 31.3369C22.968 31.2929 23.144 31.2489 23.232 31.1609C23.364 31.0729 23.452 30.9409 23.496 30.8089C23.584 30.6769 23.628 30.4569 23.628 30.2369C23.672 30.0169 23.716 29.7089 23.76 29.2689H24.552V31.0289H26.312V31.7329H24.552V34.9009C24.552 35.3409 24.552 35.7369 24.596 36.0009C24.64 36.2649 24.684 36.4849 24.772 36.6169C24.86 36.7489 24.948 36.8809 25.036 36.9689C25.124 37.0569 25.256 37.0569 25.432 37.0569C25.564 37.0569 25.74 37.0129 25.828 36.9249C25.96 36.8369 26.092 36.7489 26.224 36.5729L26.488 36.9689C26.224 37.2769 25.96 37.5409 25.74 37.6729C25.52 37.8049 25.256 37.8929 25.036 37.8929C24.552 37.8929 24.2 37.7169 23.98 37.3649C23.76 37.0129 23.628 36.4409 23.628 35.6489V31.7329H22.836L22.792 31.3369Z" fill="white"/>
<path d="M28.2479 32.0849C28.5119 31.7329 28.7319 31.5129 28.9079 31.3369C29.0839 31.1609 29.2599 31.0729 29.4359 30.9849C29.6119 30.8969 29.8319 30.8529 30.0079 30.8529C30.4039 30.8529 30.7559 30.9849 31.0199 31.2489C31.2839 31.5129 31.5039 31.9089 31.6799 32.3929C31.8119 32.9209 31.8999 33.5369 31.8999 34.2849C31.8999 35.0769 31.8119 35.6929 31.6359 36.2209C31.4599 36.7489 31.1959 37.1449 30.8439 37.4089C30.4919 37.6729 30.0519 37.8049 29.6119 37.8049C29.3479 37.8049 29.0839 37.7609 28.8639 37.7169C28.5999 37.6289 28.3799 37.5409 28.1159 37.3649L27.7199 37.8049L27.2799 37.7609V30.0609C27.2799 29.6209 27.2799 29.2689 27.2799 29.0929C27.2799 28.9169 27.2799 28.7409 27.2359 28.6529C27.1919 28.5209 27.1919 28.4329 27.1479 28.3449C27.1039 28.2569 27.0599 28.2129 26.9719 28.1689C26.8839 28.1249 26.7519 28.0809 26.5759 28.0369V27.6849L27.8959 27.5969H28.2039L28.2479 32.0849ZM28.2479 35.2089C28.2479 35.5609 28.2479 35.8689 28.2919 36.0889C28.3359 36.3089 28.3799 36.4849 28.4239 36.6169C28.4679 36.7489 28.5559 36.8809 28.6879 37.0129C28.8199 37.1449 28.9519 37.1889 29.0839 37.2769C29.2159 37.3209 29.3919 37.3649 29.5679 37.3649C30.0079 37.3649 30.3599 37.1449 30.5799 36.6609C30.7999 36.1769 30.9319 35.5169 30.9319 34.5929C30.9319 33.6689 30.8439 32.9649 30.6239 32.4809C30.4039 31.9969 30.0959 31.7769 29.6999 31.7769C29.4799 31.7769 29.3039 31.8209 29.1719 31.9089C29.0399 31.9969 28.8639 32.1289 28.7319 32.3049C28.5999 32.4809 28.4679 32.6569 28.4239 32.8329C28.3359 33.0089 28.3359 33.1849 28.3359 33.4049L28.2479 35.2089Z" fill="white"/>
<path d="M34.4959 32.1729H34.5839C34.8039 31.8649 34.9799 31.6009 35.1559 31.4249C35.3319 31.2489 35.5079 31.1169 35.7279 30.9849C35.9479 30.8969 36.1679 30.8529 36.3879 30.8529C36.6079 30.8529 36.7839 30.8529 36.9599 30.8969V32.5249H36.3439C36.2559 32.2609 36.1679 32.0849 36.0799 31.9529C35.9919 31.8209 35.8599 31.7769 35.6839 31.7769C35.5519 31.7769 35.4199 31.8209 35.2879 31.9089C35.1559 31.9969 35.0239 32.1729 34.9359 32.3489C34.8039 32.5249 34.7159 32.7009 34.6719 32.8769C34.6279 33.0529 34.5839 33.2289 34.5839 33.4489V35.9129C34.5839 36.3529 34.6279 36.6609 34.6279 36.7929C34.6719 36.9689 34.7159 37.0569 34.8479 37.1449C34.9359 37.2329 35.0679 37.2769 35.2439 37.3209V37.6729H33.0439V37.3209C33.1759 37.2769 33.2639 37.2329 33.3519 37.1889C33.4399 37.1449 33.4839 37.1009 33.4839 37.0129C33.5279 36.9249 33.5719 36.8369 33.5719 36.6609C33.6159 36.5289 33.6159 36.2649 33.6159 35.9129V32.8329C33.6159 32.5249 33.6159 32.3049 33.6159 32.0849C33.6159 31.9089 33.5719 31.7329 33.5279 31.6449C33.4839 31.5129 33.4399 31.4689 33.3079 31.3809C33.2199 31.3369 33.0879 31.2929 32.9119 31.2489V30.8969L34.1879 30.8089H34.5399L34.4959 32.1729Z" fill="white"/>
<path d="M40.6559 36.7489L40.5679 36.7049C40.2599 37.1009 39.9519 37.4089 39.6879 37.5849C39.4239 37.7609 39.1159 37.8489 38.8079 37.8489C38.5439 37.8489 38.2799 37.7609 38.0599 37.6289C37.8399 37.4969 37.7079 37.2769 37.5759 37.0569C37.4439 36.8369 37.3999 36.5289 37.3999 36.1769C37.3999 35.4729 37.6639 34.9449 38.1919 34.5929C38.7199 34.2409 39.5119 34.0209 40.5679 33.9329V33.4489C40.5679 32.9649 40.5239 32.5689 40.4799 32.3049C40.3919 31.9969 40.3039 31.8209 40.1279 31.6889C39.9959 31.5569 39.7759 31.5129 39.5119 31.5129C39.2039 31.5129 38.9839 31.6009 38.8079 31.8209C38.6319 31.9969 38.4999 32.3049 38.4119 32.7009H37.7079V31.7769C38.0599 31.5569 38.3679 31.3809 38.5879 31.2489C38.8079 31.1169 39.0719 31.0729 39.2919 30.9849C39.5119 30.8969 39.7759 30.8969 39.9959 30.8969C40.3479 30.8969 40.6559 30.9849 40.8759 31.1169C41.0959 31.2489 41.2719 31.4689 41.3599 31.7769C41.4479 32.0849 41.5359 32.5689 41.5359 33.1849V35.6489C41.5359 36.0009 41.5359 36.2209 41.5359 36.3969C41.5359 36.5729 41.5359 36.6609 41.5799 36.7929C41.6239 36.9249 41.6239 37.0129 41.6679 37.1009C41.7119 37.1889 41.7559 37.2329 41.8439 37.2769C41.9319 37.3209 42.0199 37.3649 42.1959 37.4529V37.8049H40.6999L40.6559 36.7489ZM40.5679 34.5489C39.8199 34.5489 39.2919 34.6809 38.8959 34.9449C38.5439 35.2089 38.3239 35.5609 38.3239 36.0449C38.3239 36.3089 38.3679 36.5289 38.4559 36.6609C38.5439 36.7929 38.6319 36.9249 38.7639 36.9689C38.8959 37.0129 39.0279 37.0569 39.2039 37.0569C39.4679 37.0569 39.6879 36.9689 39.8639 36.8369C40.0839 36.7049 40.2159 36.4849 40.3479 36.2649C40.4799 36.0009 40.5239 35.7809 40.5239 35.5609V34.5489H40.5679Z" fill="white"/>
<path d="M48.312 37.7609H46.156V37.4089C46.288 37.3649 46.42 37.3209 46.464 37.2769C46.508 37.2329 46.596 37.1889 46.596 37.1009C46.64 37.0129 46.684 36.9249 46.684 36.7489C46.728 36.5729 46.728 36.3529 46.728 36.0449V34.1969C46.728 33.8449 46.728 33.5809 46.684 33.3169C46.684 33.0529 46.64 32.8329 46.596 32.6569C46.552 32.4809 46.508 32.3489 46.464 32.2609C46.42 32.1729 46.376 32.0849 46.288 31.9969C46.2 31.9089 46.156 31.8649 46.068 31.8209C45.98 31.7769 45.848 31.7769 45.716 31.7769C45.584 31.7769 45.452 31.8209 45.32 31.8649C45.188 31.9089 45.056 32.0849 44.88 32.2609C44.748 32.4369 44.616 32.6129 44.528 32.7889C44.44 32.9649 44.44 33.1409 44.44 33.4049V36.0449C44.44 36.4409 44.44 36.7489 44.484 36.8809C44.528 37.0129 44.572 37.1449 44.66 37.2329C44.748 37.3209 44.88 37.3649 45.056 37.4529V37.8049H42.9V37.4529C43.032 37.4089 43.164 37.3649 43.208 37.3209C43.252 37.2769 43.296 37.2329 43.34 37.1449C43.384 37.0569 43.428 36.9689 43.428 36.7929C43.472 36.6609 43.472 36.3969 43.472 36.0889V33.0089C43.472 32.7009 43.472 32.4809 43.472 32.2609C43.472 32.0849 43.428 31.9089 43.384 31.8209C43.34 31.7329 43.296 31.6449 43.208 31.5569C43.12 31.5129 42.988 31.4689 42.812 31.4249V31.0729L44.088 30.9849H44.44V32.0849L44.528 32.1289C44.792 31.7769 45.012 31.5129 45.188 31.3809C45.364 31.2489 45.54 31.1169 45.716 31.0289C45.892 30.9409 46.068 30.8969 46.244 30.8969C46.42 30.8969 46.596 30.9409 46.772 30.9849C46.904 31.0289 47.08 31.1169 47.168 31.2489C47.3 31.3809 47.388 31.5129 47.476 31.6889C47.564 31.8649 47.608 32.0849 47.652 32.3489C47.696 32.6129 47.696 32.9209 47.696 33.3169V36.0009C47.696 36.3089 47.696 36.5729 47.74 36.7049C47.74 36.8369 47.784 36.9689 47.828 37.0569C47.872 37.1449 47.916 37.1889 48.004 37.2769C48.092 37.3209 48.18 37.3649 48.356 37.4529L48.312 37.7609Z" fill="white"/>
<path d="M52.9318 30.0609C52.9318 29.6209 52.9318 29.2689 52.9318 29.0929C52.9318 28.9169 52.8878 28.7409 52.8878 28.6529C52.8438 28.5209 52.8438 28.4329 52.7998 28.3449C52.7558 28.2569 52.7118 28.2129 52.6238 28.1689C52.5358 28.1249 52.4038 28.0809 52.2278 28.0369V27.6849L53.5478 27.5969H53.8558V35.7809C53.8558 36.1329 53.8558 36.3969 53.8558 36.5729C53.8558 36.7489 53.8998 36.8809 53.9438 36.9689C53.9878 37.0569 54.0318 37.1449 54.1198 37.1889C54.2078 37.2329 54.3398 37.3209 54.5158 37.3649V37.7169L53.2398 37.8049H52.8878L52.9758 36.6609L52.8878 36.6169C52.6678 36.9249 52.4478 37.1889 52.2718 37.3209C52.0958 37.4969 51.9198 37.6289 51.7438 37.7169C51.5678 37.8049 51.3478 37.8489 51.1278 37.8489C50.5118 37.8489 50.0718 37.5409 49.7198 36.9689C49.4118 36.3969 49.2358 35.5169 49.2358 34.4169C49.2358 33.6249 49.3238 32.9649 49.5438 32.4369C49.7638 31.9089 50.0278 31.5129 50.4238 31.2489C50.8198 30.9849 51.1718 30.8529 51.6558 30.8529C51.9198 30.8529 52.1398 30.8969 52.3158 30.9409C52.4918 30.9849 52.7118 31.0729 52.9318 31.2049V30.0609ZM52.9318 33.5809C52.9318 33.2289 52.9318 32.9209 52.8878 32.7009C52.8438 32.4809 52.7998 32.3049 52.7558 32.1289C52.7118 31.9969 52.6238 31.8649 52.4918 31.7329C52.4038 31.6449 52.2718 31.5569 52.1398 31.5129C52.0078 31.4689 51.8758 31.4249 51.6998 31.4249C51.2158 31.4249 50.8638 31.6449 50.6438 32.1729C50.3798 32.6569 50.2918 33.3609 50.2918 34.2409C50.2918 35.1209 50.3798 35.8249 50.5998 36.3089C50.8198 36.7929 51.1278 37.0129 51.5238 37.0129C51.6998 37.0129 51.8318 37.0129 51.9198 36.9689C52.0078 36.9249 52.1398 36.8809 52.2278 36.7929C52.3158 36.7049 52.4478 36.6169 52.5358 36.4849C52.6238 36.3529 52.7118 36.2209 52.7558 36.1329C52.7998 36.0449 52.8438 35.8689 52.8878 35.7369C52.9318 35.6049 52.9318 35.3849 52.9318 35.1649V33.5809Z" fill="white"/>
<path d="M54.6039 39.3449H11.3079V40.0489H54.6039V39.3449Z" fill="white"/>
</g>
<defs>
<clipPath id="clip0_26_82">
<rect width="66" height="66" fill="white" transform="translate(0 0.84491)"/>
</clipPath>
</defs>
</svg>
