<svg width="26" height="26" viewBox="0 0 26 26" fill="none" xmlns="http://www.w3.org/2000/svg">
<circle cx="13.3784" cy="12.7004" r="12.5" fill="#D71A22"/>
<path d="M19.107 6.29403C18.86 6.08455 18.472 6.05458 18.0708 6.21564H18.0701C17.6482 6.38494 6.12662 11.3269 5.65759 11.5288C5.57228 11.5585 4.82723 11.8364 4.90397 12.4557C4.97248 13.014 5.57129 13.2452 5.64441 13.2719L8.57355 14.2748C8.76789 14.9217 9.48428 17.3084 9.64271 17.8182C9.74152 18.1361 9.90259 18.5537 10.1849 18.6397C10.4326 18.7352 10.6789 18.6479 10.8383 18.5228L12.6292 16.8617L15.5201 19.1163L15.5889 19.1575C15.7852 19.2444 15.9733 19.2879 16.1528 19.2879C16.2915 19.2879 16.4246 19.2619 16.5517 19.2099C16.9848 19.032 17.1581 18.6193 17.1762 18.5725L19.3356 7.34837C19.4673 6.7489 19.2842 6.4439 19.107 6.29403ZM11.1569 14.676L10.1687 17.311L9.18059 14.0172L16.7562 8.41785L11.1569 14.676Z" fill="white"/>
</svg>
