<svg width="26" height="26" viewBox="0 0 26 26" fill="none" xmlns="http://www.w3.org/2000/svg">
<circle cx="13.3337" cy="13.1244" r="12.5" fill="white"/>
<path d="M19.0623 6.71798C18.8153 6.5085 18.4273 6.47853 18.0261 6.63959H18.0254C17.6035 6.80889 6.08194 11.7509 5.61291 11.9528C5.5276 11.9824 4.78255 12.2604 4.8593 12.8796C4.92781 13.4379 5.52661 13.6691 5.59973 13.6958L8.52888 14.6988C8.72321 15.3457 9.4396 17.7323 9.59803 18.2422C9.69684 18.56 9.85791 18.9777 10.1402 19.0637C10.3879 19.1592 10.6342 19.0719 10.7937 18.9467L12.5845 17.2857L15.4754 19.5403L15.5443 19.5814C15.7406 19.6684 15.9286 19.7119 16.1082 19.7119C16.2468 19.7119 16.3799 19.6859 16.507 19.6338C16.9402 19.4559 17.1134 19.0432 17.1315 18.9965L19.2909 7.77232C19.4227 7.17285 19.2395 6.86785 19.0623 6.71798ZM11.1122 15.0999L10.124 17.735L9.13592 14.4412L16.7116 8.8418L11.1122 15.0999Z" fill="#D71A22"/>
</svg>
