<svg width="26" height="26" viewBox="0 0 26 26" fill="none" xmlns="http://www.w3.org/2000/svg">
<circle cx="13.3337" cy="13.1244" r="12.5" fill="white"/>
<path fill-rule="evenodd" clip-rule="evenodd" d="M9.14014 6.30969L10.1886 9.45496V11.5518H10.8875V9.45496L11.9359 6.30969H11.237L10.538 8.40654L9.83909 6.30969H9.14014ZM12.9844 7.70759C12.6117 7.70759 12.4288 7.76629 12.2008 7.95331C11.9824 8.13761 11.9223 8.27958 11.9359 8.75601V10.5034C11.9359 10.8515 11.9933 11.0808 12.2035 11.2842C12.4219 11.4876 12.6281 11.5518 12.9844 11.5518C13.357 11.5518 13.5604 11.4876 13.7707 11.2842C13.9891 11.089 14.0328 10.8515 14.0328 10.5034V8.75601C14.0328 8.44749 13.9782 8.15535 13.7666 7.96014C13.5482 7.75947 13.3229 7.70759 12.9844 7.70759ZM14.7317 7.70759V10.8529C14.7317 11.1928 15.0744 11.5518 15.4307 11.5518C15.787 11.5518 15.9754 11.373 16.1296 11.2023V11.5518H16.8286V7.70759H16.1296V10.5034C16.1255 10.7423 15.8443 10.8529 15.7802 10.8529C15.7078 10.8529 15.4307 10.8378 15.4307 10.5034V7.70759H14.7317ZM12.9844 8.40654C13.0895 8.40654 13.3338 8.40517 13.3338 8.75601V10.5034C13.3338 10.8419 13.0977 10.8529 12.9844 10.8529C12.8792 10.8529 12.6349 10.8488 12.6349 10.5034V8.75601C12.6349 8.4707 12.7864 8.40654 12.9844 8.40654ZM8.09172 12.2508C6.8358 12.2508 5.99487 13.0835 5.99487 14.3476V17.6676C5.99487 18.9317 6.8358 19.9392 8.09172 19.9392H18.576C19.8319 19.9392 20.6728 19.1065 20.6728 17.8423V14.3476C20.6728 13.0835 19.8319 12.2508 18.576 12.2508H8.09172ZM8.79067 13.6487H10.8875V14.3476H10.1886V18.5413H9.48962V14.3476H8.79067V13.6487ZM13.6833 13.6487H14.3823V15.0466C14.4628 14.921 14.5829 14.8213 14.6976 14.7653C14.8095 14.708 14.9229 14.6752 15.0375 14.6752C15.2641 14.6752 15.4416 14.7571 15.5631 14.91C15.6846 15.0643 15.7802 15.2691 15.7802 15.5708V17.6676C15.7802 17.927 15.6928 18.0881 15.5781 18.226C15.4662 18.3638 15.2983 18.5386 15.0812 18.5413C14.714 18.5454 14.5174 18.3488 14.3823 18.1918V18.5413H13.6833V13.6487ZM10.8875 14.6971H11.5865V17.4929C11.5865 17.5734 11.6807 17.8451 11.9359 17.8423C12.2199 17.8396 12.2226 17.5748 12.2854 17.4929V14.6971H12.9844V18.5413H12.2854V18.1918C12.1557 18.3447 12.0888 18.3925 11.9428 18.4648C11.7981 18.5468 11.6506 18.5413 11.5141 18.5413C11.3448 18.5413 11.1524 18.3884 11.0623 18.2737C10.9817 18.1686 10.8875 18.0608 10.8875 17.8423V14.6971ZM17.2477 14.6971C17.5794 14.6971 17.8128 14.7681 17.9889 14.9537C18.1691 15.1394 18.2265 15.3564 18.2265 15.7059V16.7939H16.8286V17.3345C16.8286 17.5297 16.8545 17.654 16.905 17.7277C16.9528 17.8082 17.0497 17.8437 17.1781 17.8423C17.32 17.841 17.4101 17.8123 17.4579 17.7482C17.5071 17.6908 17.5275 17.5284 17.5275 17.3181V17.1434H18.2265V17.3509C18.2265 17.7318 18.1964 18.0157 18.0081 18.2014C17.8306 18.3966 17.5535 18.4867 17.1903 18.4867C16.8586 18.4867 16.5992 18.3884 16.4136 18.1864C16.2279 17.9843 16.131 17.7072 16.131 17.3509V15.7059C16.131 15.3892 16.2416 15.1544 16.445 14.9455C16.6088 14.7776 16.9159 14.6971 17.2477 14.6971ZM14.7317 15.2213C14.5393 15.2213 14.385 15.3947 14.3823 15.5708V17.6676C14.385 17.7686 14.5393 17.8423 14.7317 17.8423C14.9242 17.8423 15.0812 17.6935 15.0812 17.5011V15.7455C15.0812 15.396 14.9242 15.2213 14.7317 15.2213ZM17.1781 15.396C16.9856 15.396 16.8313 15.5585 16.8286 15.7455V16.095H17.5275V15.7455C17.5275 15.5312 17.3705 15.396 17.1781 15.396Z" fill="#D71A22"/>
</svg>
