<svg width="26" height="26" viewBox="0 0 26 26" fill="none" xmlns="http://www.w3.org/2000/svg">
<circle cx="13.3784" cy="12.7004" r="12.5" fill="#D71A22"/>
<path d="M5.64087 7.92627V17.4747H10.2538C10.6812 17.4747 13.6248 17.388 13.6248 14.7005C13.6248 13.021 12.4695 12.4505 11.8828 12.2811C12.3143 12.0775 13.1731 11.5936 13.1731 10.2972C13.1731 9.57547 13.0703 7.92627 10.1247 7.92627H5.64087ZM16.157 8.81337V9.68434H19.7215V8.81337H16.157ZM7.73765 9.5553H9.70539C9.89087 9.5553 11.1409 9.45651 11.1409 10.6521C11.1409 11.6743 10.2376 11.7811 9.86668 11.7811H7.73765V9.5553ZM18.028 10.4747C15.3324 10.4747 14.7699 12.8154 14.7699 13.8295C14.7699 16.8396 17.2377 17.1843 18.028 17.1843C20.159 17.1843 20.7639 15.8053 21.0119 15.0392H19.4635C19.403 15.2368 18.9514 15.8779 18.0925 15.8779C16.653 15.8779 16.528 14.7529 16.528 14.2489H21.1086C21.2014 12.5069 20.4393 10.4747 18.028 10.4747ZM17.9796 11.7811C18.409 11.7811 18.7558 11.9061 18.9635 12.136C19.1711 12.3678 19.3244 12.7065 19.3667 13.1521H16.528C16.536 13.0291 16.5643 12.888 16.6086 12.7327C16.653 12.5735 16.7215 12.4222 16.8344 12.2811C16.9473 12.142 17.1046 12.021 17.286 11.9263C17.4715 11.8295 17.7014 11.7811 17.9796 11.7811ZM7.73765 13.2166H10.0118C10.4635 13.2166 11.528 13.2872 11.528 14.5876C11.528 15.8477 10.1872 15.8456 9.97958 15.8456H7.73765V13.2166Z" fill="white"/>
</svg>
