<svg width="26" height="26" viewBox="0 0 26 26" fill="none" xmlns="http://www.w3.org/2000/svg">
<circle cx="13.3784" cy="12.7004" r="12.5" fill="#D71A22"/>
<path fill-rule="evenodd" clip-rule="evenodd" d="M9.18482 5.88574L10.2332 9.03101V11.1279H10.9322V9.03101L11.9806 5.88574H11.2817L10.5827 7.98259L9.88377 5.88574H9.18482ZM13.029 7.28364C12.6564 7.28364 12.4734 7.34234 12.2455 7.52936C12.027 7.71366 11.967 7.85563 11.9806 8.33206V10.0794C11.9806 10.4275 12.038 10.6569 12.2482 10.8603C12.4666 11.0637 12.6727 11.1279 13.029 11.1279C13.4017 11.1279 13.6051 11.0637 13.8154 10.8603C14.0338 10.6651 14.0775 10.4275 14.0775 10.0794V8.33206C14.0775 8.02354 14.0229 7.7314 13.8113 7.53619C13.5928 7.33552 13.3676 7.28364 13.029 7.28364ZM14.7764 7.28364V10.4289C14.7764 10.7688 15.1191 11.1279 15.4754 11.1279C15.8317 11.1279 16.02 10.949 16.1743 10.7784V11.1279H16.8733V7.28364H16.1743V10.0794C16.1702 10.3183 15.889 10.4289 15.8248 10.4289C15.7525 10.4289 15.4754 10.4139 15.4754 10.0794V7.28364H14.7764ZM13.029 7.98259C13.1342 7.98259 13.3785 7.98122 13.3785 8.33206V10.0794C13.3785 10.418 13.1423 10.4289 13.029 10.4289C12.9239 10.4289 12.6796 10.4248 12.6796 10.0794V8.33206C12.6796 8.04675 12.8311 7.98259 13.029 7.98259ZM8.1364 11.8268C6.88047 11.8268 6.03955 12.6595 6.03955 13.9237V17.2437C6.03955 18.5078 6.88047 19.5152 8.1364 19.5152H18.6206C19.8766 19.5152 20.7175 18.6825 20.7175 17.4184V13.9237C20.7175 12.6595 19.8766 11.8268 18.6206 11.8268H8.1364ZM8.83535 13.2247H10.9322V13.9237H10.2332V18.1173H9.5343V13.9237H8.83535V13.2247ZM13.728 13.2247H14.4269V14.6226C14.5075 14.497 14.6276 14.3974 14.7423 14.3414C14.8542 14.284 14.9675 14.2513 15.0822 14.2513C15.3088 14.2513 15.4863 14.3332 15.6078 14.4861C15.7293 14.6403 15.8248 14.8451 15.8248 15.1468V17.2437C15.8248 17.503 15.7375 17.6641 15.6228 17.802C15.5109 17.9399 15.3429 18.1146 15.1259 18.1173C14.7587 18.1214 14.5621 17.9249 14.4269 17.7679V18.1173H13.728V13.2247ZM10.9322 14.2731H11.6311V17.0689C11.6311 17.1495 11.7253 17.4211 11.9806 17.4184C12.2646 17.4157 12.2673 17.1508 12.3301 17.0689V14.2731H13.029V18.1173H12.3301V17.7679C12.2004 17.9208 12.1335 17.9685 11.9874 18.0409C11.8427 18.1228 11.6953 18.1173 11.5588 18.1173C11.3895 18.1173 11.197 17.9645 11.1069 17.8498C11.0264 17.7447 10.9322 17.6368 10.9322 17.4184V14.2731ZM17.2924 14.2731C17.6241 14.2731 17.8575 14.3441 18.0336 14.5298C18.2138 14.7154 18.2712 14.9325 18.2712 15.282V16.37H16.8733V16.9106C16.8733 17.1058 16.8992 17.23 16.9497 17.3037C16.9975 17.3843 17.0944 17.4198 17.2227 17.4184C17.3647 17.417 17.4548 17.3884 17.5026 17.3242C17.5517 17.2669 17.5722 17.1044 17.5722 16.8942V16.7194H18.2712V16.9269C18.2712 17.3078 18.2411 17.5918 18.0527 17.7774C17.8753 17.9726 17.5981 18.0627 17.235 18.0627C16.9033 18.0627 16.6439 17.9645 16.4583 17.7624C16.2726 17.5604 16.1757 17.2832 16.1757 16.9269V15.282C16.1757 14.9653 16.2863 14.7304 16.4897 14.5216C16.6535 14.3537 16.9606 14.2731 17.2924 14.2731ZM14.7764 14.7973C14.5839 14.7973 14.4297 14.9707 14.4269 15.1468V17.2437C14.4297 17.3447 14.5839 17.4184 14.7764 17.4184C14.9689 17.4184 15.1259 17.2696 15.1259 17.0771V15.3216C15.1259 14.9721 14.9689 14.7973 14.7764 14.7973ZM17.2227 14.9721C17.0302 14.9721 16.876 15.1345 16.8733 15.3216V15.671H17.5722V15.3216C17.5722 15.1072 17.4152 14.9721 17.2227 14.9721Z" fill="white"/>
</svg>
